<svg width="74" height="9" viewBox="0 0 74 9" fill="none" xmlns="http://www.w3.org/2000/svg">
<path fill-rule="evenodd" clip-rule="evenodd" d="M0.525 6.52231H0L2.36299 0.771729H3.08487L5.44785 6.52231H4.89641L4.31215 5.08052H1.10926L0.525 6.52231ZM1.36539 4.50049H4.06973L2.71756 1.18604L1.36539 4.50049ZM6.09088 6.52231V0.771729H6.56348V6.52231H6.09088ZM8.8344 2.42896H10.1077C10.5891 2.42896 10.9481 2.58932 11.1842 2.90955C11.3854 3.18592 11.4863 3.56123 11.4863 4.03647V4.93137C11.4863 5.43439 11.3791 5.82092 11.1651 6.09143C10.9329 6.38974 10.5808 6.53889 10.1082 6.53889H8.83489C8.53762 6.53889 8.2903 6.46138 8.09343 6.30687C8.03221 6.25715 7.96414 6.17966 7.88969 6.07486V8.19612H7.4171V2.42896H7.88969V2.87641C7.95973 2.77698 8.02535 2.7024 8.08657 2.65268C8.27463 2.50353 8.51117 2.42896 8.79522 2.42896H8.8344ZM7.8892 4.03647L7.86276 4.48392L7.8892 4.93137C7.8892 5.26282 7.96805 5.52505 8.12428 5.71856C8.29813 5.934 8.55329 6.04172 8.88876 6.04172H9.9417C10.2992 6.04172 10.5671 5.95349 10.7454 5.77656C10.9236 5.59963 11.0132 5.3179 11.0132 4.93137V4.03647C11.0132 3.66067 10.9212 3.38186 10.7385 3.19957C10.5558 3.01727 10.2899 2.92613 9.94121 2.92613H8.89513C8.55966 2.92613 8.30793 3.02702 8.14044 3.22833C7.97344 3.43012 7.8892 3.69966 7.8892 4.03647ZM13.5472 2.42896H14.8073C15.2887 2.42896 15.6496 2.58639 15.8901 2.90127C16.1046 3.18299 16.2118 3.56123 16.2118 4.03647V6.52231H15.7392V4.03647C15.7392 3.68309 15.654 3.40965 15.4831 3.21614C15.3127 3.02312 15.0869 2.92613 14.8073 2.92613H13.5472C13.2626 2.92613 13.0344 3.02166 12.861 3.21175C12.6882 3.40233 12.602 3.67724 12.602 4.03647V6.52231H12.1294V0.771729H12.602V3.00899C12.6896 2.82133 12.7861 2.69119 12.8909 2.61954C13.0701 2.49232 13.2891 2.42896 13.5472 2.42896ZM16.8681 4.98109C16.8681 4.68815 16.9469 4.45906 17.1056 4.29334C17.2809 4.11104 17.54 4.0199 17.8823 4.0199H19.7805C20.0093 4.0199 20.1753 4.07254 20.2815 4.17733C20.3163 4.21048 20.3472 4.26556 20.3736 4.34306V3.7796C20.3736 3.53101 20.3149 3.33215 20.1954 3.183C20.0553 3.01191 19.8506 2.92613 19.5827 2.92613H18.3226C17.9891 2.92613 17.754 3.01435 17.6169 3.19128C17.5733 3.24636 17.5405 3.33507 17.5184 3.45644V3.60559H17.0331V3.45644C16.9851 3.21906 17.0811 2.9812 17.3221 2.74383C17.5322 2.53375 17.8255 2.42896 18.2016 2.42896H19.6258C20.0504 2.42896 20.3629 2.55617 20.5646 2.81012C20.7527 3.04749 20.8467 3.40136 20.8467 3.87075V6.52231H20.3731V6.19087C20.3207 6.26837 20.2747 6.32345 20.235 6.35659C20.1082 6.46675 19.9618 6.52231 19.7952 6.52231H17.9577C17.5993 6.52231 17.3279 6.43799 17.1438 6.26934C16.9601 6.10069 16.8681 5.837 16.8681 5.47826V4.98109ZM18.0532 4.51707C17.7677 4.51707 17.5772 4.56288 17.4832 4.65354C17.3882 4.74469 17.3412 4.89774 17.3412 5.11367V5.41197C17.3412 5.61084 17.3872 5.75463 17.4802 5.84285C17.5939 5.95349 17.7854 6.00857 18.0532 6.00857H19.6611C20.1356 6.00857 20.3731 5.75999 20.3731 5.26282C20.3731 5.00887 20.3144 4.82073 20.1949 4.69936C20.0768 4.57799 19.8986 4.51707 19.6611 4.51707H18.0532ZM25.5222 5.06395V2.90955H27.9704V2.41238H25.5222V1.61692H25.0496V2.41238H24.6427V2.90955H25.0496V4.9728C25.0496 5.49191 25.1515 5.88038 25.3547 6.13725C25.5585 6.39412 25.8459 6.5228 26.2177 6.5228H26.894C27.441 6.5228 27.8279 6.32686 28.0556 5.93448C28.2001 5.6859 28.2721 5.3681 28.2721 4.98158V4.86557H27.7995V4.91529C27.7995 5.2521 27.7535 5.49824 27.6619 5.65276C27.5174 5.90134 27.2461 6.02563 26.8479 6.02563H26.2177C26.012 6.02563 25.8479 5.94813 25.7255 5.79362C25.5903 5.62205 25.5222 5.37882 25.5222 5.06395ZM32.3879 4.0199C32.3879 3.67773 32.311 3.40672 32.1582 3.20786C32.0049 3.00899 31.7909 2.90955 31.5152 2.90955H30.0317C29.7825 2.90955 29.5812 3.00899 29.4279 3.20786C29.2746 3.40672 29.1982 3.67773 29.1982 4.0199H32.3879ZM31.7052 6.53889H30.117C29.1894 6.53889 28.7256 6.02514 28.7256 4.99766V3.92046C28.7256 3.51737 28.8436 3.17179 29.0802 2.8847C29.3383 2.56982 29.6796 2.41238 30.1042 2.41238H31.4696C31.9158 2.41238 32.264 2.55617 32.5132 2.84326C32.7454 3.10842 32.861 3.44523 32.861 3.85417V4.51707H29.1982V4.9148C29.1982 5.31254 29.2834 5.60548 29.4543 5.79313C29.6032 5.95886 29.8172 6.04172 30.0974 6.04172H31.6396C31.8888 6.04172 32.0759 5.97104 32.2008 5.83018C32.3257 5.68931 32.3879 5.51092 32.3879 5.29596V5.2131H32.8605V5.29596C32.8605 5.61084 32.7797 5.88135 32.6176 6.10801C32.4119 6.3951 32.1077 6.53889 31.7052 6.53889ZM36.2015 6.04172C36.5604 6.04172 36.8161 5.92279 36.9694 5.68541C37.0654 5.53626 37.1139 5.36225 37.1139 5.16339V5.08052H37.5865V5.14681C37.5865 5.45047 37.5208 5.71563 37.3896 5.94228C37.1618 6.34002 36.7725 6.53889 36.2215 6.53889H34.7641C34.3223 6.53889 33.9932 6.40484 33.7763 6.13676C33.5598 5.86868 33.4516 5.49434 33.4516 5.01375V3.98627C33.4516 3.51639 33.5608 3.14351 33.7797 2.86763C34.0158 2.56397 34.3571 2.4119 34.8038 2.4119H36.2215H36.2348C36.6506 2.4119 36.9743 2.53034 37.2064 2.7682C37.4601 3.028 37.5869 3.36188 37.5869 3.77083V3.83712H37.1143V3.78886C37.1143 3.51152 37.0355 3.29608 36.8778 3.14108C36.7206 2.98657 36.5017 2.90907 36.2215 2.90907H34.8038C34.5236 2.90907 34.3072 3.00021 34.1539 3.18251C34.0006 3.3648 33.9242 3.63289 33.9242 3.98627V5.01375C33.9242 5.33398 34.005 5.58549 34.1671 5.76779C34.3292 5.95008 34.5305 6.04123 34.7709 6.04123L36.2015 6.04172ZM39.6473 2.42896H40.9074C41.3888 2.42896 41.7497 2.58639 41.9902 2.90127C42.2047 3.18299 42.3119 3.56123 42.3119 4.03647V6.52231H41.8393V4.03647C41.8393 3.68309 41.7541 3.40965 41.5832 3.21614C41.4128 3.02312 41.1875 2.92613 40.9069 2.92613H39.6468C39.3622 2.92613 39.134 3.02166 38.9611 3.21175C38.7883 3.40233 38.7016 3.67724 38.7016 4.03647V6.52231H38.229V0.771729H38.7016V3.00899C38.7892 2.82133 38.8852 2.69119 38.9905 2.61954C39.1703 2.49232 39.3892 2.42896 39.6473 2.42896ZM44.4516 2.42896H45.699C46.198 2.42896 46.5673 2.5976 46.8082 2.93441C47.0139 3.2215 47.1168 3.62216 47.1168 4.1359V6.51403H46.6442V4.05304C46.6442 3.69966 46.559 3.42329 46.388 3.22443C46.2176 3.02556 45.9879 2.92613 45.699 2.92613H44.4516C44.1715 2.92613 43.9442 3.02556 43.7689 3.22443C43.5941 3.42329 43.5064 3.69966 43.5064 4.05304V6.51403H43.0338V2.42896H43.5064V3.09185C43.5588 2.9427 43.6137 2.83205 43.6705 2.7604C43.8502 2.53911 44.1103 2.42896 44.4516 2.42896ZM47.773 4.0199C47.773 3.52273 47.8803 3.13864 48.0943 2.86812C48.3352 2.56446 48.7006 2.41238 49.1903 2.41238H50.4896C50.993 2.41238 51.3628 2.57275 51.5989 2.89298C51.8045 3.16935 51.9074 3.54466 51.9074 4.0199V4.9148C51.9074 5.39004 51.8026 5.76828 51.5925 6.05C51.3476 6.3756 50.9798 6.53889 50.4896 6.53889H49.1903C48.7133 6.53889 48.3578 6.40192 48.1237 6.12848C47.8896 5.85503 47.7725 5.45048 47.7725 4.91431V4.46686L47.773 4.0199ZM48.2456 4.9148C48.2456 5.6664 48.5718 6.04172 49.2236 6.04172H50.4573C50.7639 6.04172 51.0033 5.94911 51.1757 5.76437C51.3486 5.57915 51.4353 5.29596 51.4353 4.9148V4.0199C51.4353 3.66116 51.351 3.38625 51.1826 3.19567C51.0141 3.00509 50.7727 2.90955 50.4573 2.90955H49.2236C48.8955 2.90955 48.6501 2.99778 48.4885 3.17471C48.3264 3.35164 48.2456 3.63337 48.2456 4.0199V4.9148ZM52.7875 6.52231V0.771729H53.2601V6.52231H52.7875ZM54.0476 4.0199C54.0476 3.52273 54.1548 3.13864 54.3693 2.86812C54.6103 2.56446 54.9756 2.41238 55.4658 2.41238H56.7651C57.2681 2.41238 57.6383 2.57275 57.8744 2.89298C58.0801 3.16935 58.1829 3.54466 58.1829 4.0199V4.9148C58.1829 5.39004 58.0781 5.76828 57.868 6.05C57.6231 6.3756 57.2553 6.53889 56.7651 6.53889H55.4658C54.9888 6.53889 54.6333 6.40192 54.3992 6.12848C54.1651 5.85503 54.048 5.45048 54.048 4.91431V4.46686L54.0476 4.0199ZM54.5202 4.9148C54.5202 5.6664 54.8463 6.04172 55.4982 6.04172H56.7323C57.0389 6.04172 57.2779 5.94911 57.4507 5.76437C57.6236 5.57915 57.7098 5.29596 57.7098 4.9148V4.0199C57.7098 3.66116 57.6256 3.38625 57.4571 3.19567C57.2886 3.00509 57.0467 2.90955 56.7318 2.90955H55.4977C55.1695 2.90955 54.9247 2.99778 54.7626 3.17471C54.6005 3.35164 54.5197 3.63337 54.5197 4.0199L54.5202 4.9148ZM58.8259 5.01424V4.33477V3.97018C58.8259 3.47837 58.9366 3.09867 59.1585 2.83059C59.3803 2.56251 59.7128 2.42896 60.1561 2.42896H61.5268C61.8212 2.42896 62.0651 2.50353 62.2575 2.65268C62.3197 2.7024 62.3878 2.77698 62.4622 2.87641V2.42896H62.9216V6.95319C62.9216 7.36214 62.8207 7.67652 62.6194 7.89781C62.3873 8.15176 62.0288 8.27898 61.543 8.27898H60.2305C59.8544 8.27898 59.5522 8.17954 59.325 7.98068C59.0972 7.78181 58.9836 7.51665 58.9836 7.1852H59.4954C59.4954 7.34556 59.562 7.48497 59.6967 7.60341C59.8299 7.72234 60.0248 7.78181 60.28 7.78181H61.5195C61.8226 7.78181 62.0553 7.70577 62.2183 7.55418C62.3814 7.40211 62.4622 7.21835 62.4622 7.00291V6.04172C62.427 6.14651 62.3418 6.24594 62.2051 6.34002C62.0259 6.46138 61.808 6.52231 61.5533 6.52231H60.1967C59.2833 6.52231 58.8259 6.01978 58.8259 5.01424ZM62.4622 4.9148V4.0199C62.4622 3.6943 62.3814 3.43451 62.2193 3.241C62.0401 3.03092 61.784 2.92613 61.4514 2.92613H60.375C59.9856 2.92613 59.7089 3.01338 59.5444 3.1869C59.3803 3.36091 59.298 3.63874 59.298 4.01941V4.91431C59.298 5.30133 59.3857 5.58257 59.5605 5.7595C59.7354 5.93595 60.0067 6.02466 60.3745 6.02466H61.4509C61.7835 6.02466 62.0352 5.9223 62.2056 5.71807C62.3765 5.51433 62.4622 5.24625 62.4622 4.9148ZM63.8271 6.52231V2.42896H64.2997V6.52231H63.8271ZM63.8271 0.771729H64.2997V1.36833H63.8271V0.771729ZM68.8024 4.0199C68.8024 3.67773 68.726 3.40672 68.5727 3.20786C68.4194 3.00899 68.2054 2.90955 67.9297 2.90955H66.4463C66.197 2.90955 65.9957 3.00899 65.8424 3.20786C65.6891 3.40672 65.6127 3.67773 65.6127 4.0199H68.8024ZM68.1197 6.53889H66.5315C65.6039 6.53889 65.1401 6.02514 65.1401 4.99766V3.92046C65.1401 3.51737 65.2582 3.17179 65.4947 2.8847C65.7528 2.56982 66.0941 2.41238 66.5188 2.41238H67.8841C68.3303 2.41238 68.6785 2.55617 68.9278 2.84326C69.1594 3.10842 69.2755 3.44523 69.2755 3.85417V4.51707H65.6132V4.9148C65.6132 5.31254 65.6984 5.60548 65.8689 5.79313C66.0177 5.95886 66.2323 6.04172 66.5124 6.04172H68.0551C68.3043 6.04172 68.4914 5.97104 68.6163 5.83018C68.7412 5.68931 68.8034 5.51092 68.8034 5.29596V5.2131H69.276V5.29596C69.276 5.61084 69.1952 5.88135 69.0331 6.10801C68.8264 6.3951 68.5223 6.53889 68.1197 6.53889ZM70.3647 5.2131V5.44511C70.3647 5.64398 70.4063 5.78485 70.4896 5.86771C70.6042 5.98372 70.8201 6.04172 71.136 6.04172H72.8094C73.2884 6.04172 73.5279 5.84821 73.5279 5.46169V5.27939C73.5279 5.0971 73.4745 4.95477 73.3658 4.8529C73.2585 4.75054 73.1067 4.69936 72.9084 4.69936H71.0116C70.6463 4.69936 70.372 4.6165 70.1844 4.45078C69.9974 4.28505 69.9043 4.01405 69.9043 3.63873V3.47301C69.9043 3.16935 69.9964 2.9232 70.18 2.73554C70.3901 2.5201 70.683 2.41238 71.0596 2.41238H72.5954C73.1336 2.41238 73.5166 2.52303 73.7439 2.74383C73.9148 2.90955 74 3.13572 74 3.4233V3.70502H73.5274V3.43987C73.5274 3.31265 73.4814 3.20785 73.3898 3.12499C73.2321 2.9812 72.972 2.90955 72.6087 2.90955H70.9808C70.5694 2.90955 70.3637 3.0977 70.3637 3.47301V3.63873C70.3637 4.01453 70.5704 4.20219 70.9827 4.20219H72.8795C73.2448 4.20219 73.5215 4.29042 73.713 4.46735C73.9045 4.64428 73.9995 4.9148 73.9995 5.27939V5.46169C73.9995 5.76535 73.9079 6.01393 73.7238 6.20744C73.5137 6.42824 73.2164 6.53889 72.831 6.53889H71.0327C70.6081 6.53889 70.3039 6.43409 70.1203 6.22401C69.9758 6.05829 69.9038 5.82091 69.9038 5.5114V5.2131H70.3647Z" fill="#575756"/>
</svg>
