<svg width="16" height="17" viewBox="0 0 16 17" fill="none" xmlns="http://www.w3.org/2000/svg">
<g clip-path="url(#clip0_2205_714)">
<path d="M3 2.25H13C14.2426 2.25 15.25 3.25736 15.25 4.5V12.3955C15.25 12.5911 15.0911 12.75 14.8955 12.75C14.0736 12.7502 13.3572 13.29 13.1221 14.0645L13.0811 14.2217L12.9746 14.7314C12.7596 15.7526 11.3399 15.7846 11.0498 14.8271L11.0254 14.7314C10.7822 13.5768 9.76393 12.7502 8.58398 12.75H3C1.75736 12.75 0.75 11.7426 0.75 10.5V4.5C0.75 3.25736 1.75736 2.25 3 2.25Z" stroke="#C0C0C0" stroke-width="1.5"/>
</g>
<defs>
<clipPath id="clip0_2205_714">
<rect width="16" height="16" fill="white" transform="translate(0 0.5)"/>
</clipPath>
</defs>
</svg>
