<svg width="34" height="40" viewBox="0 0 34 40" fill="none" xmlns="http://www.w3.org/2000/svg">
<circle cx="17" cy="17" r="16.5" fill="#008BD2" stroke="#008BD2"/>
<path d="M17 32L17 40" stroke="#008BD2" stroke-width="3"/>
<path fill-rule="evenodd" clip-rule="evenodd" d="M21.6991 15.5282L23.3562 14.8856C23.7424 14.7362 23.9327 14.6615 23.9274 14.6615C23.9221 14.6615 23.9246 14.6615 23.9355 14.6615C23.9462 14.6714 23.9571 14.6813 23.9678 14.6914C23.9784 14.7013 23.9894 14.7115 24 14.7214C24 14.7812 23.9355 14.8559 23.8069 14.9454C23.6783 15.035 23.201 15.2841 22.3751 15.6924L19.0123 17.366L19.6557 19.2337C20.1383 20.6383 20.4682 21.6245 20.6453 22.1922C20.8224 22.7601 20.9107 23.1286 20.9107 23.2978C20.9107 23.537 20.8356 23.7137 20.6854 23.8282C20.5352 23.9427 20.3474 24 20.1224 24C19.9615 24 19.8006 23.9378 19.6398 23.8131C19.4789 23.6885 19.0176 22.3861 18.2561 19.9057L17.6609 17.9781C15.3224 19.2433 14.1613 19.8731 14.1776 19.8682C14.1938 19.8633 14.1857 19.8656 14.1535 19.8758L13.0111 20.5184C12.8931 20.7974 12.7833 21.1061 12.6813 21.4449C12.5792 21.7835 12.5176 22.0625 12.4963 22.2817L12.4318 22.7447C12.3783 23.1231 12.271 23.3897 12.1101 23.544C11.9492 23.6983 11.7402 23.7756 11.4826 23.7756C11.3324 23.7756 11.2144 23.7009 11.1286 23.5516C11.0429 23.4022 11 23.1978 11 22.9389C11 22.7497 11.134 22.259 11.4022 21.467C11.6704 20.675 12.0941 19.5171 12.6731 17.993L14.2658 13.7943C14.8022 12.3698 15.1722 11.5479 15.3759 11.3287C15.5797 11.1096 15.7997 11 16.0357 11C16.2181 11 16.3977 11.0971 16.5746 11.2912C16.7517 11.4854 17.28 12.7032 18.1594 14.9447L18.8351 16.6929C19.6182 16.404 20.2134 16.1674 20.6212 15.9831C21.0287 15.7997 21.388 15.6479 21.6991 15.5282ZM13.2521 19.6074L17.4515 17.3212L16.6954 15.08C16.5345 14.6217 16.3736 14.2581 16.2128 13.9892C16.0519 13.7201 15.9017 13.5858 15.7621 13.5858C15.5797 13.5858 15.3919 13.7302 15.1988 14.0191C15.0057 14.308 14.7431 14.9704 14.4104 16.0066L13.2521 19.6074Z" fill="white"/>
</svg>
