<svg width="13" height="13" viewBox="0 0 13 13" fill="none" xmlns="http://www.w3.org/2000/svg">
<path fill-rule="evenodd" clip-rule="evenodd" d="M12.4588 6.45068C12.4575 9.72167 9.79663 12.3832 6.52496 12.3845H6.5225C5.52938 12.3842 4.55354 12.135 3.68683 11.6623L0.541168 12.4874L1.383 9.41255C0.863717 8.51263 0.590473 7.49183 0.590918 6.446C0.59222 3.17427 3.25418 0.512451 6.5249 0.512451C8.11229 0.513136 9.60217 1.1311 10.7225 2.25274C11.8428 3.37432 12.4595 4.86517 12.4588 6.45068ZM3.83368 10.5877L1.967 11.0774L2.46525 9.2574L2.34798 9.0708C1.85427 8.28555 1.59352 7.37797 1.5939 6.44604C1.59498 3.72673 3.80751 1.5144 6.528 1.5144C7.84535 1.51486 9.08368 2.02852 10.0149 2.96078C10.946 3.89304 11.4586 5.13217 11.458 6.45004C11.457 9.16955 9.24446 11.3821 6.52606 11.3821H6.52406C5.63905 11.3818 4.77102 11.144 4.01378 10.6946L3.83368 10.5877ZM9.51644 7.86114C9.48662 7.81137 9.41679 7.77762 9.31338 7.72764L9.31325 7.72758C9.2882 7.71547 9.26118 7.70241 9.23229 7.68795C9.08402 7.61374 8.35506 7.25509 8.21913 7.20556C8.08325 7.1561 7.98436 7.13139 7.88554 7.27977C7.78671 7.42818 7.50256 7.76219 7.41607 7.86114C7.32957 7.96007 7.24308 7.97249 7.09487 7.89825C7.07064 7.88612 7.03762 7.8718 6.99686 7.85412C6.78813 7.76358 6.37632 7.58495 5.90251 7.16233C5.46173 6.76917 5.16417 6.28365 5.07768 6.13521C4.99119 5.98677 5.06846 5.90656 5.14268 5.83262C5.1871 5.78838 5.2381 5.72626 5.28911 5.66414C5.31472 5.63296 5.34032 5.60178 5.36509 5.57285C5.4281 5.49929 5.4554 5.44355 5.49252 5.36776L5.51336 5.32553C5.56278 5.22653 5.53807 5.13998 5.501 5.06576C5.4762 5.0161 5.33523 4.67292 5.20765 4.36231C5.14456 4.20871 5.08474 4.06308 5.04386 3.96485C4.93759 3.7096 4.82987 3.71023 4.74347 3.71073C4.73201 3.7108 4.72092 3.71087 4.71026 3.71033C4.62388 3.70599 4.52492 3.70508 4.42609 3.70508C4.32725 3.70508 4.16661 3.74219 4.03071 3.89063C4.022 3.90015 4.01227 3.91053 4.00169 3.92182C3.84726 4.08659 3.51178 4.44457 3.51178 5.12753C3.51178 5.85354 4.03754 6.55503 4.116 6.65972L4.1172 6.66132C4.12205 6.6678 4.13075 6.68027 4.14318 6.6981L4.14319 6.69811C4.32072 6.95273 5.26007 8.29993 6.65006 8.90012C7.0038 9.05289 7.27996 9.14412 7.49531 9.21244C7.85048 9.32532 8.17374 9.30939 8.42917 9.2712C8.71406 9.22865 9.30639 8.91255 9.43 8.56622C9.55349 8.21982 9.55349 7.92296 9.51644 7.86114Z" fill="#222222"/>
</svg>
