<svg width="13" height="13" viewBox="0 0 13 13" fill="none" xmlns="http://www.w3.org/2000/svg">
<path fill-rule="evenodd" clip-rule="evenodd" d="M12.4588 6.45077C12.4575 9.72176 9.79663 12.3833 6.52496 12.3846H6.5225C5.52938 12.3843 4.55354 12.1351 3.68683 11.6624L0.541168 12.4875L1.383 9.41265C0.863717 8.51272 0.590473 7.49192 0.590918 6.44609C0.59222 3.17436 3.25418 0.512543 6.5249 0.512543C8.11229 0.513228 9.60217 1.1312 10.7225 2.25283C11.8428 3.37441 12.4595 4.86526 12.4588 6.45077ZM3.83368 10.5878L1.967 11.0775L2.46525 9.25749L2.34798 9.07089C1.85427 8.28565 1.59352 7.37806 1.5939 6.44613C1.59498 3.72682 3.80751 1.5145 6.528 1.5145C7.84535 1.51495 9.08368 2.02861 10.0149 2.96087C10.946 3.89313 11.4586 5.13226 11.458 6.45013C11.457 9.16964 9.24446 11.3822 6.52606 11.3822H6.52406C5.63905 11.3818 4.77102 11.1441 4.01378 10.6947L3.83368 10.5878ZM9.51644 7.86123C9.48662 7.81146 9.41679 7.77771 9.31338 7.72773L9.31325 7.72767C9.2882 7.71556 9.26118 7.70251 9.23229 7.68804C9.08402 7.61383 8.35506 7.25518 8.21913 7.20565C8.08325 7.15619 7.98436 7.13148 7.88554 7.27986C7.78671 7.42827 7.50256 7.76228 7.41607 7.86123C7.32957 7.96016 7.24308 7.97258 7.09487 7.89834C7.07064 7.88621 7.03762 7.87189 6.99686 7.85421C6.78813 7.76367 6.37632 7.58505 5.90251 7.16242C5.46173 6.76926 5.16417 6.28374 5.07768 6.1353C4.99119 5.98686 5.06846 5.90665 5.14268 5.83271C5.1871 5.78847 5.2381 5.72635 5.28911 5.66423C5.31472 5.63305 5.34032 5.60187 5.36509 5.57294C5.4281 5.49938 5.4554 5.44364 5.49252 5.36786L5.51336 5.32562C5.56278 5.22662 5.53807 5.14007 5.501 5.06585C5.4762 5.01619 5.33523 4.67301 5.20765 4.3624C5.14456 4.20881 5.08474 4.06317 5.04386 3.96494C4.93759 3.70969 4.82987 3.71032 4.74347 3.71082C4.73201 3.71089 4.72092 3.71096 4.71026 3.71042C4.62388 3.70608 4.52492 3.70517 4.42609 3.70517C4.32725 3.70517 4.16661 3.74228 4.03071 3.89072C4.022 3.90024 4.01227 3.91062 4.00169 3.92191C3.84726 4.08669 3.51178 4.44466 3.51178 5.12762C3.51178 5.85363 4.03754 6.55512 4.116 6.65981L4.1172 6.66141C4.12205 6.66789 4.13075 6.68036 4.14318 6.6982L4.14319 6.6982C4.32072 6.95282 5.26007 8.30002 6.65006 8.90021C7.0038 9.05298 7.27996 9.14421 7.49531 9.21253C7.85048 9.32541 8.17374 9.30948 8.42917 9.27129C8.71406 9.22874 9.30639 8.91264 9.43 8.56631C9.55349 8.21992 9.55349 7.92305 9.51644 7.86123Z" fill="#EAEAEA"/>
</svg>
